<?xml version="1.0" encoding="UTF-8"?>
<svg width="749px" height="89px" viewBox="0 0 749 89" version="1.1" xmlns="http://www.w3.org/2000/svg" xmlns:xlink="http://www.w3.org/1999/xlink">
    <!-- Generator: Sketch 51.1 (57501) - http://www.bohemiancoding.com/sketch -->
    <title>Group</title>
    <desc>Created with Sketch.</desc>
    <defs></defs>
    <g id="Page-1" stroke="none" stroke-width="1" fill="none" fill-rule="evenodd">
        <g id="Artboard-Copy-4" transform="translate(-5.000000, -27.000000)" fill="#FFFFFF">
            <g id="Group" transform="translate(5.000000, 27.000000)">
                <path d="M57.056,68.444 C53.5839826,71.3373478 49.9053528,73.5899919 46.02,75.202 C42.1346472,76.8140081 38.1666869,77.62 34.116,77.62 C29.4866435,77.62 25.1466869,76.7520087 21.096,75.016 C17.0453131,73.2799913 13.5113484,70.9033484 10.494,67.886 C7.47665158,64.8686516 5.10000868,61.3553534 3.364,57.346 C1.62799132,53.3366466 0.76,49.0173565 0.76,44.388 C0.76,39.7586435 1.62799132,35.4186869 3.364,31.368 C5.10000868,27.3173131 7.47665158,23.762682 10.494,20.704 C13.5113484,17.645318 17.0453131,15.2480087 21.096,13.512 C25.1466869,11.7759913 29.4866435,10.908 34.116,10.908 C37.4226832,10.908 40.873982,11.5693267 44.47,12.892 C48.066018,14.2146733 51.6413156,16.0746547 55.196,18.472 L50.856,21.82 C45.4826398,18.1826485 39.9026956,16.364 34.116,16.364 C30.2306472,16.364 26.5933503,17.0873261 23.204,18.534 C19.8146497,19.9806739 16.8386795,21.9853205 14.276,24.548 C11.7133205,27.1106795 9.7086739,30.0866497 8.262,33.476 C6.8153261,36.8653503 6.092,40.5026472 6.092,44.388 C6.092,48.2733528 6.8153261,51.8899833 8.262,55.238 C9.7086739,58.5860167 11.7133205,61.5206541 14.276,64.042 C16.8386795,66.5633459 19.8146497,68.5473261 23.204,69.994 C26.5933503,71.4406739 30.2306472,72.164 34.116,72.164 C37.4226832,72.164 40.7293168,71.5026733 44.036,70.18 C47.3426832,68.8573267 50.4426522,66.9973453 53.336,64.6 L57.056,68.444 Z M74.664,51.952 L74.664,77 L69.456,77 L69.456,11.776 L87.932,11.776 C90.8253478,11.776 93.4913211,12.3339944 95.93,13.45 C98.3686789,14.5660056 100.476658,16.0539907 102.254,17.914 C104.031342,19.7740093 105.415995,21.9233211 106.408,24.362 C107.400005,26.8006789 107.896,29.3013205 107.896,31.864 C107.896,35.9146869 106.842011,39.6139833 104.734,42.962 C102.625989,46.3100167 99.6293528,48.7279926 95.744,50.216 L102.564,58.896 C103.556005,60.1360062 104.651327,61.5619919 105.85,63.174 C107.048673,64.7860081 108.267994,66.3979919 109.508,68.01 C110.748006,69.6220081 111.967327,71.2133255 113.166,72.784 C114.364673,74.3546745 115.418662,75.7599938 116.328,77 L109.508,77 L90.164,51.952 L74.664,51.952 Z M74.664,17.108 L74.664,46.62 L87.932,46.62 C89.998677,46.62 91.9413242,46.2273373 93.76,45.442 C95.5786758,44.6566627 97.1493267,43.6026733 98.472,42.28 C99.7946733,40.9573267 100.827996,39.4073422 101.572,37.63 C102.316004,35.8526578 102.688,33.9720099 102.688,31.988 C102.688,29.921323 102.316004,27.9786758 101.572,26.16 C100.827996,24.3413242 99.7946733,22.7706733 98.472,21.448 C97.1493267,20.1253267 95.5786758,19.0713373 93.76,18.286 C91.9413242,17.5006627 89.998677,17.108 87.932,17.108 L74.664,17.108 Z M141.624,50.588 L120.172,12.892 L124.884,10.66 L144.352,44.884 L163.82,10.66 L168.532,12.892 L146.832,50.588 L146.832,77 L141.5,77 L141.624,50.588 Z M183.908,17.108 L183.908,46.496 L200.028,46.496 C202.01201,46.496 203.851325,46.1033373 205.546,45.318 C207.240675,44.5326627 208.72866,43.4993397 210.01,42.218 C211.29134,40.9366603 212.303996,39.4073422 213.048,37.63 C213.792004,35.8526578 214.164,33.9720099 214.164,31.988 C214.164,29.921323 213.792004,27.9786758 213.048,26.16 C212.303996,24.3413242 211.29134,22.7706733 210.01,21.448 C208.72866,20.1253267 207.220009,19.0713373 205.484,18.286 C203.747991,17.5006627 201.88801,17.108 199.904,17.108 L183.908,17.108 Z M178.576,77 L178.576,11.776 L199.904,11.776 C202.632014,11.776 205.173988,12.2926615 207.53,13.326 C209.886012,14.3593385 211.952658,15.7853242 213.73,17.604 C215.507342,19.4226758 216.912662,21.5719876 217.946,24.052 C218.979338,26.5320124 219.496,29.1773193 219.496,31.988 C219.496,34.7160136 218.979338,37.2993211 217.946,39.738 C216.912662,42.1766789 215.528009,44.2846578 213.792,46.062 C212.055991,47.8393422 210.010012,49.2446615 207.654,50.278 C205.297988,51.3113385 202.756014,51.828 200.028,51.828 L183.908,51.828 L183.908,77 L178.576,77 Z M278.52,11.776 L278.52,17.108 L253.224,17.108 L253.224,77 L247.768,77 L247.768,17.108 L222.348,17.108 L222.348,11.776 L278.52,11.776 Z M319.316,11.156 C323.945356,11.156 328.285313,12.0239913 332.336,13.76 C336.386687,15.4960087 339.899985,17.8726516 342.876,20.89 C345.852015,23.9073484 348.207991,27.4413131 349.944,31.492 C351.680009,35.5426869 352.548,39.8826435 352.548,44.512 C352.548,49.1413565 351.680009,53.4606466 349.944,57.47 C348.207991,61.4793534 345.852015,64.9926516 342.876,68.01 C339.899985,71.0273484 336.386687,73.4039913 332.336,75.14 C328.285313,76.8760087 323.945356,77.744 319.316,77.744 C314.686644,77.744 310.367353,76.8760087 306.358,75.14 C302.348647,73.4039913 298.835348,71.0273484 295.818,68.01 C292.800652,64.9926516 290.424009,61.4793534 288.688,57.47 C286.951991,53.4606466 286.084,49.1413565 286.084,44.512 C286.084,39.8826435 286.951991,35.5426869 288.688,31.492 C290.424009,27.4413131 292.800652,23.9073484 295.818,20.89 C298.835348,17.8726516 302.348647,15.4960087 306.358,13.76 C310.367353,12.0239913 314.686644,11.156 319.316,11.156 Z M347.216,44.512 C347.216,40.6266472 346.492674,36.9893503 345.046,33.6 C343.599326,30.2106497 341.594679,27.2553459 339.032,24.734 C336.469321,22.2126541 333.49335,20.2286739 330.104,18.782 C326.71465,17.3353261 323.118686,16.612 319.316,16.612 C315.430647,16.612 311.79335,17.3353261 308.404,18.782 C305.01465,20.2286739 302.059346,22.2126541 299.538,24.734 C297.016654,27.2553459 295.032674,30.2106497 293.586,33.6 C292.139326,36.9893503 291.416,40.6266472 291.416,44.512 C291.416,48.3973528 292.139326,52.0139833 293.586,55.362 C295.032674,58.7100167 297.016654,61.6446541 299.538,64.166 C302.059346,66.6873459 305.01465,68.6713261 308.404,70.118 C311.79335,71.5646739 315.430647,72.288 319.316,72.288 C323.118686,72.288 326.71465,71.5646739 330.104,70.118 C333.49335,68.6713261 336.469321,66.6873459 339.032,64.166 C341.594679,61.6446541 343.599326,58.7100167 345.046,55.362 C346.492674,52.0139833 347.216,48.3973528 347.216,44.512 Z M424.84,68.444 C421.367983,71.3373478 417.689353,73.5899919 413.804,75.202 C409.918647,76.8140081 405.950687,77.62 401.9,77.62 C397.270644,77.62 392.930687,76.7520087 388.88,75.016 C384.829313,73.2799913 381.295348,70.9033484 378.278,67.886 C375.260652,64.8686516 372.884009,61.3553534 371.148,57.346 C369.411991,53.3366466 368.544,49.0173565 368.544,44.388 C368.544,39.7586435 369.411991,35.4186869 371.148,31.368 C372.884009,27.3173131 375.260652,23.762682 378.278,20.704 C381.295348,17.645318 384.829313,15.2480087 388.88,13.512 C392.930687,11.7759913 397.270644,10.908 401.9,10.908 C405.206683,10.908 408.657982,11.5693267 412.254,12.892 C415.850018,14.2146733 419.425316,16.0746547 422.98,18.472 L418.64,21.82 C413.26664,18.1826485 407.686696,16.364 401.9,16.364 C398.014647,16.364 394.37735,17.0873261 390.988,18.534 C387.59865,19.9806739 384.622679,21.9853205 382.06,24.548 C379.497321,27.1106795 377.492674,30.0866497 376.046,33.476 C374.599326,36.8653503 373.876,40.5026472 373.876,44.388 C373.876,48.2733528 374.599326,51.8899833 376.046,55.238 C377.492674,58.5860167 379.497321,61.5206541 382.06,64.042 C384.622679,66.5633459 387.59865,68.5473261 390.988,69.994 C394.37735,71.4406739 398.014647,72.164 401.9,72.164 C405.206683,72.164 408.513317,71.5026733 411.82,70.18 C415.126683,68.8573267 418.226652,66.9973453 421.12,64.6 L424.84,68.444 Z M482.376,42.28 L442.572,42.28 L442.572,77 L437.116,77 L437.116,11.776 L442.572,11.776 L442.572,36.824 L482.376,36.824 L482.376,11.776 L487.832,11.776 L487.832,77 L482.376,77 L482.376,42.28 Z M536.688,48.108 L527.14,23.556 C526.56133,25.0440074 525.962003,26.5939919 525.342,28.206 C524.721997,29.8180081 524.06067,31.5953236 523.358,33.538 C522.65533,35.4806764 521.849338,37.6299882 520.94,39.986 C520.030662,42.3420118 519.038672,45.049318 517.964,48.108 L536.688,48.108 Z M527.14,11.156 C531.686689,21.8200533 536.191978,32.4632802 540.656,43.086 C545.120022,53.7087198 549.625311,64.6412771 554.172,75.884 L549.46,77.124 L538.796,52.696 L515.98,52.696 L505.316,77.372 L500.356,76.132 L527.14,11.156 Z M622.62,10.908 L622.62,77 L617.164,77 L617.164,25.664 L608.112,37.196 L594.348,54.308 L571.284,25.54 L571.284,77 L566.076,77 L566.076,10.66 L594.348,45.876 L622.62,10.908 Z M667.508,71.544 C671.062684,71.544 674.038655,70.3040124 676.436,67.824 C678.833345,65.3439876 680.032,62.3266844 680.032,58.772 C680.032,57.0359913 679.701337,55.3620081 679.04,53.75 C678.378663,52.1379919 677.490006,50.7533391 676.374,49.596 C675.257994,48.4386609 673.935341,47.5086702 672.406,46.806 C670.876659,46.1033298 669.244009,45.752 667.508,45.752 L646.924,45.752 L646.924,71.544 L667.508,71.544 Z M666.64,11.776 C669.037345,11.776 671.269323,12.2513286 673.336,13.202 C675.402677,14.1526714 677.179993,15.4133255 678.668,16.984 C680.156007,18.5546745 681.313329,20.3526565 682.14,22.378 C682.966671,24.4033435 683.38,26.5319888 683.38,28.764 C683.38,31.4920136 682.698007,34.0959876 681.334,36.576 C679.969993,39.0560124 678.213344,41.1226584 676.064,42.776 C678.874681,44.3466745 681.106658,46.5579857 682.76,49.41 C684.413342,52.2620143 685.24,55.3826497 685.24,58.772 C685.24,61.2520124 684.785338,63.6079888 683.876,65.84 C682.966662,68.0720112 681.706008,70.0146584 680.094,71.668 C678.481992,73.3213416 676.601344,74.6233286 674.452,75.574 C672.302656,76.5246714 669.988012,77 667.508,77 L641.592,77 L641.592,11.776 L666.64,11.776 Z M678.048,28.764 C678.048,27.1106584 677.75867,25.5813404 677.18,24.176 C676.60133,22.7706596 675.795338,21.530672 674.762,20.456 C673.728661,19.381328 672.50934,18.5546696 671.104,17.976 C669.69866,17.3973304 668.210675,17.108 666.64,17.108 L646.924,17.108 L646.924,40.42 L666.64,40.42 C668.210675,40.42 669.69866,40.1100031 671.104,39.49 C672.50934,38.8699969 673.728661,38.022672 674.762,36.948 C675.795338,35.873328 676.60133,34.6333404 677.18,33.228 C677.75867,31.8226596 678.048,30.3346745 678.048,28.764 Z M706.444,51.952 L706.444,77 L701.236,77 L701.236,11.776 L719.712,11.776 C722.605348,11.776 725.271321,12.3339944 727.71,13.45 C730.148679,14.5660056 732.256658,16.0539907 734.034,17.914 C735.811342,19.7740093 737.195995,21.9233211 738.188,24.362 C739.180005,26.8006789 739.676,29.3013205 739.676,31.864 C739.676,35.9146869 738.622011,39.6139833 736.514,42.962 C734.405989,46.3100167 731.409353,48.7279926 727.524,50.216 L734.344,58.896 C735.336005,60.1360062 736.431327,61.5619919 737.63,63.174 C738.828673,64.7860081 740.047994,66.3979919 741.288,68.01 C742.528006,69.6220081 743.747327,71.2133255 744.946,72.784 C746.144673,74.3546745 747.198662,75.7599938 748.108,77 L741.288,77 L721.944,51.952 L706.444,51.952 Z M706.444,17.108 L706.444,46.62 L719.712,46.62 C721.778677,46.62 723.721324,46.2273373 725.54,45.442 C727.358676,44.6566627 728.929327,43.6026733 730.252,42.28 C731.574673,40.9573267 732.607996,39.4073422 733.352,37.63 C734.096004,35.8526578 734.468,33.9720099 734.468,31.988 C734.468,29.921323 734.096004,27.9786758 733.352,26.16 C732.607996,24.3413242 731.574673,22.7706733 730.252,21.448 C728.929327,20.1253267 727.358676,19.0713373 725.54,18.286 C723.721324,17.5006627 721.778677,17.108 719.712,17.108 L706.444,17.108 Z" id="cryptochambr"></path>
                <rect id="Rectangle-2" fill-rule="nonzero" x="650" y="0" width="5" height="16"></rect>
                <rect id="Rectangle-2-Copy-2" fill-rule="nonzero" x="650" y="73" width="5" height="16"></rect>
                <rect id="Rectangle-2-Copy" fill-rule="nonzero" x="659" y="0" width="5" height="16"></rect>
                <rect id="Rectangle-2-Copy-3" fill-rule="nonzero" x="659" y="73" width="5" height="16"></rect>
            </g>
        </g>
    </g>
</svg>